<?xml version="1.0" encoding="UTF-8" standalone="no"?>
<!DOCTYPE svg PUBLIC "-//W3C//DTD SVG 1.1//EN" "http://www.w3.org/Graphics/SVG/1.1/DTD/svg11.dtd">
<svg width="100%" height="100%" viewBox="0 0 16 16" version="1.1" xmlns="http://www.w3.org/2000/svg" xmlns:xlink="http://www.w3.org/1999/xlink" xml:space="preserve" xmlns:serif="http://www.serif.com/" style="fill-rule:evenodd;clip-rule:evenodd;stroke-linejoin:round;stroke-miterlimit:2;">
    <rect x="2" y="1" width="12" height="12" style="fill:white;"/>
    <path d="M5,11C5,11.549 4.549,12 4,12C3.451,12 3,11.549 3,11C3,10.451 3.451,10 4,10C4.549,10 5,10.451 5,11M13,11C13,11.549 12.549,12 12,12C11.451,12 11,11.549 11,11C11,10.451 11.451,10 12,10C12.549,10 13,10.451 13,11M7,10C6.451,10 6,10.451 6,11C6,11.549 6.451,12 7,12L9,12C9.549,12 10,11.549 10,11C10,10.451 9.549,10 9,10L7,10ZM8,4C6.124,4 4.574,4.109 3.448,4.226C3.195,4.252 3,4.468 3,4.723L3,8.277C3,8.532 3.195,8.748 3.448,8.774C4.574,8.891 6.124,9 8,9C9.876,9 11.426,8.891 12.552,8.774C12.805,8.748 13,8.532 13,8.277L13,4.723C13,4.468 12.805,4.252 12.552,4.226C11.04,4.072 9.52,3.997 8,4M8,3C6.163,3 4.647,3.107 3.552,3.22C3.529,3.223 3.506,3.225 3.483,3.225C3.209,3.225 2.983,2.999 2.983,2.725C2.983,2.464 3.188,2.244 3.448,2.226C4.96,2.072 6.48,1.997 8,2C9.876,2 11.426,2.109 12.552,2.226C12.812,2.244 13.017,2.464 13.017,2.725C13.017,2.999 12.791,3.225 12.517,3.225C12.494,3.225 12.471,3.223 12.448,3.22C10.97,3.07 9.485,2.996 8,3" style="fill:rgb(0,44,51);fill-rule:nonzero;"/>
    <path d="M15,8C15.549,8 16,7.549 16,7L16,5C16,4.451 15.549,4 15,4L15,2.64C15,1.452 14.155,0.408 12.936,0.268C11.297,0.086 9.649,-0.003 8,0C5.9,0 4.208,0.136 3.064,0.268C1.845,0.408 1,1.452 1,2.64L1,4C0.451,4 -0,4.451 0,5L0,7C0,7.549 0.451,8 1,8L1,11.5C1,12.318 1.393,13.044 2,13.5L2,15.5C2,15.774 2.226,16 2.5,16L4.5,16C4.774,16 5,15.774 5,15.5L5,14L11,14L11,15.5C11,15.774 11.226,16 11.5,16L13.5,16C13.774,16 14,15.774 14,15.5L14,13.5C14.607,13.044 15,12.318 15,11.5L15,8ZM8,1C10.056,1 11.71,1.134 12.822,1.261C13.498,1.339 14,1.921 14,2.64L14,11.5C14,12.323 13.323,13 12.5,13L3.5,13C2.677,13 2,12.323 2,11.5L2,2.64C2,1.92 2.502,1.339 3.178,1.261C4.779,1.084 6.389,0.997 8,1" style="fill:rgb(0,44,51);fill-rule:nonzero;"/>
</svg>
