<?xml version="1.0" encoding="UTF-8" standalone="no"?><!DOCTYPE svg PUBLIC "-//W3C//DTD SVG 1.1//EN" "http://www.w3.org/Graphics/SVG/1.1/DTD/svg11.dtd"><svg width="100%" height="100%" viewBox="0 0 67 67" version="1.1" xmlns="http://www.w3.org/2000/svg" xmlns:xlink="http://www.w3.org/1999/xlink" xml:space="preserve" xmlns:serif="http://www.serif.com/" style="fill-rule:evenodd;clip-rule:evenodd;stroke-linejoin:round;stroke-miterlimit:2;"><path d="M66.667,29.167c-0,2.285 -1.881,4.166 -4.167,4.166l0,14.584c0,3.408 -1.637,6.433 -4.167,8.333l0,8.333c0,1.143 -0.94,2.084 -2.083,2.084l-8.333,-0c-1.143,-0 -2.084,-0.941 -2.084,-2.084l0,-6.25l-25,0l0,6.25c0,1.143 -0.94,2.084 -2.083,2.084l-8.333,-0c-1.143,-0 -2.084,-0.941 -2.084,-2.084l0,-8.333c-2.621,-1.966 -4.166,-5.057 -4.166,-8.333l-0,-14.584c-2.286,0 -4.167,-1.881 -4.167,-4.166l0,-8.334c-0,-2.285 1.881,-4.166 4.167,-4.166l-0,-5.667c-0,-4.95 3.521,-9.3 8.6,-9.883c6.829,-0.758 13.695,-1.13 20.566,-1.117c8.75,0 15.8,0.567 20.567,1.117c5.079,0.583 8.6,4.933 8.6,9.883l0,5.667c2.286,-0 4.167,1.881 4.167,4.166l-0,8.334Zm-51.867,-15.75c6.158,-0.626 12.344,-0.932 18.533,-0.917c7.655,0 13.971,0.446 18.534,0.917c0.048,0.003 0.097,0.005 0.146,0.005c1.143,-0 2.083,-0.941 2.083,-2.084c0,-1.035 -0.771,-1.92 -1.796,-2.063c-6.302,-0.641 -12.632,-0.956 -18.967,-0.942c-7.816,0 -14.275,0.455 -18.966,0.942c-1.085,0.076 -1.937,0.99 -1.937,2.078c-0,1.143 0.94,2.084 2.083,2.084c0.096,-0 0.192,-0.007 0.287,-0.02m18.533,3.25c-7.816,-0 -14.275,0.454 -18.966,0.941c-1.055,0.111 -1.866,1.01 -1.867,2.071l0,14.808c0.001,1.061 0.812,1.961 1.867,2.071c4.691,0.488 11.15,0.942 18.966,0.942c7.817,0 14.275,-0.454 18.967,-0.942c1.055,-0.11 1.866,-1.01 1.867,-2.07l-0,-14.809c-0.001,-1.061 -0.812,-1.96 -1.867,-2.071c-6.302,-0.641 -12.632,-0.955 -18.967,-0.941m-12.5,29.166c0,-2.285 -1.881,-4.166 -4.166,-4.166c-2.286,-0 -4.167,1.881 -4.167,4.166c0,2.286 1.881,4.167 4.167,4.167c2.285,0 4.166,-1.881 4.166,-4.167m33.334,0c-0,-2.285 -1.881,-4.166 -4.167,-4.166c-2.286,-0 -4.167,1.881 -4.167,4.166c0,2.286 1.881,4.167 4.167,4.167c2.286,0 4.167,-1.881 4.167,-4.167m-29.167,0c0,2.286 1.881,4.167 4.167,4.167l8.333,0c2.286,0 4.167,-1.881 4.167,-4.167c-0,-2.285 -1.881,-4.166 -4.167,-4.166l-8.333,-0c-2.286,-0 -4.167,1.881 -4.167,4.166" style="fill:#007385;fill-rule:nonzero;"/></svg>