<?xml version="1.0" encoding="UTF-8" standalone="no"?><!DOCTYPE svg PUBLIC "-//W3C//DTD SVG 1.1//EN" "http://www.w3.org/Graphics/SVG/1.1/DTD/svg11.dtd"><svg width="100%" height="100%" viewBox="0 0 160 80" version="1.1" xmlns="http://www.w3.org/2000/svg" xmlns:xlink="http://www.w3.org/1999/xlink" xml:space="preserve" xmlns:serif="http://www.serif.com/" style="fill-rule:evenodd;clip-rule:evenodd;stroke-linejoin:round;stroke-miterlimit:2;"><g><path d="M160,9.6l0,60.8c0,5.298 -4.302,9.6 -9.6,9.6l-140.8,0c-5.298,0 -9.6,-4.302 -9.6,-9.6l0,-60.8c0,-5.298 4.302,-9.6 9.6,-9.6l140.8,-0c5.298,-0 9.6,4.302 9.6,9.6Z" style="fill:#1bb049;"/><path d="M57.009,33.691c-0,4.705 -1.416,8.34 -4.246,10.904c-2.831,2.564 -6.852,3.846 -12.063,3.846l-3.261,-0l-0,13.972l-11.607,0l-0,-42.118l14.868,-0c5.427,-0 9.501,1.162 12.224,3.486c2.723,2.324 4.085,5.627 4.085,9.91Zm-19.57,5.474l2.115,-0c1.744,-0 3.13,-0.481 4.158,-1.441c1.029,-0.96 1.543,-2.285 1.543,-3.975c-0,-2.843 -1.607,-4.264 -4.819,-4.264l-2.997,-0l-0,9.68Z" style="fill:#fff;fill-rule:nonzero;"/><path d="M74.667,45.474l-10.931,-0l-0,-7.721l10.931,-0l-0,-10.573l7.904,0l0,10.573l10.931,-0l0,7.721l-10.931,-0l0,10.4l-7.904,-0l-0,-10.4Z" style="fill:#fff;fill-rule:nonzero;"/><path d="M114.334,47.087l-0,15.326l-11.607,0l-0,-42.118l14.075,-0c11.676,-0 17.513,4.148 17.513,12.445c0,4.878 -2.429,8.652 -7.287,11.322l12.518,18.351l-13.164,0l-9.11,-15.326l-2.938,-0Zm-0,-8.556l2.174,-0c4.055,-0 6.083,-1.758 6.083,-5.272c-0,-2.9 -1.989,-4.35 -5.965,-4.35l-2.292,-0l-0,9.622Z" style="fill:#fff;fill-rule:nonzero;"/></g></svg>